<svg width="52" height="47" viewBox="0 0 52 47" fill="none" xmlns="http://www.w3.org/2000/svg">
<path d="M36.2734 29.6434L34.9575 30.8741C34.9575 30.8741 31.83 33.8 23.2934 25.8137C14.7568 17.8276 17.8842 14.9018 17.8842 14.9018L18.7128 14.1266C20.754 12.2171 20.9464 9.15135 19.1654 6.91324L15.5227 2.33499C13.3186 -0.435111 9.05943 -0.801039 6.53307 1.5624L1.99867 5.8044C0.745992 6.9763 -0.0934607 8.49543 0.00834368 10.1807C0.268777 14.492 2.34204 23.7683 13.911 34.5913C26.1794 46.0684 37.6907 46.5245 42.3982 46.1116C43.8871 45.9812 45.1819 45.2677 46.2254 44.2914L50.3293 40.4524C53.0995 37.8608 52.3183 33.4179 48.7739 31.6052L43.2547 28.7823C40.9274 27.5921 38.0923 27.9416 36.2734 29.6434Z" fill="#EC883B"/>
</svg>
