<svg width="52" height="47" viewBox="0 0 52 47" fill="none" xmlns="http://www.w3.org/2000/svg">
<path d="M26.0652 0.000168569C19.8815 -0.0210976 13.8924 1.97042 9.17555 5.61643C4.45867 9.26243 1.32362 14.3236 0.334443 19.8893C-0.654736 25.4549 0.566892 31.1598 3.77954 35.9774C6.99218 40.7951 11.9849 44.4093 17.8595 46.1697C19.1579 46.3591 19.5734 45.6251 19.5734 44.9859V40.9845C12.3805 42.4051 10.8484 37.8828 10.8484 37.8828C10.3635 36.4123 9.31218 35.1511 7.88815 34.3314C5.52514 32.8634 8.06992 32.9108 8.06992 32.9108C8.88503 33.0069 9.66576 33.2698 10.3537 33.6798C11.0417 34.0898 11.6192 34.6363 12.0429 35.2784C12.7642 36.4479 13.9627 37.3103 15.3777 37.6784C16.7928 38.0464 18.31 37.8901 19.5993 37.2436C19.7177 36.0433 20.297 34.9197 21.2353 34.0709C15.6783 33.55 9.49811 31.5138 9.49811 22.493C9.423 20.1288 10.3535 17.8297 12.0948 16.0766C11.3042 14.0391 11.3971 11.8032 12.3545 9.82599C12.3545 9.82599 14.5357 9.18672 19.4955 12.1937C23.7478 11.1514 28.2267 11.1514 32.4791 12.1937C37.4388 9.13937 39.62 9.82599 39.62 9.82599C40.5774 11.8032 40.6703 14.0391 39.8797 16.0766C41.6211 17.8297 42.5515 20.1288 42.4764 22.493C42.4764 31.5375 36.4001 33.5263 30.6094 34.1183C31.2331 34.6898 31.7156 35.3763 32.0246 36.1318C32.3336 36.8872 32.462 37.6941 32.4012 38.4984V44.9859C32.4012 45.6251 32.8166 46.3828 34.141 46.1697C40.0048 44.4123 44.9904 40.8079 48.2037 36.0027C51.4171 31.1974 52.648 25.5056 51.6759 19.9478C50.7037 14.39 47.592 9.32975 42.8988 5.67426C38.2055 2.01878 32.2376 0.00718972 26.0652 0.000168569Z" fill="#EC883B"/>
</svg>
