<svg width="52" height="47" viewBox="0 0 52 47" fill="none" xmlns="http://www.w3.org/2000/svg">
<path d="M47.9375 0H4.0625C1.81797 0 0 1.61542 0 3.60987V42.5965C0 44.5909 1.81797 46.2064 4.0625 46.2064H47.9375C50.182 46.2064 52 44.5909 52 42.5965V3.60987C52 1.61542 50.182 0 47.9375 0ZM18.7281 32.7686H13.6602V18.3562H18.7281V32.7686ZM16.057 16.5513H16.0164C14.1781 16.5513 12.9898 15.4503 12.9898 14.0514C12.9898 12.6255 14.2187 11.5516 16.0875 11.5516C17.9562 11.5516 19.1039 12.6255 19.1445 14.0514C19.1547 15.4412 17.9664 16.5513 16.057 16.5513ZM39 32.7686H33.2516V25.3142C33.2516 23.3649 32.3578 22.0292 30.3773 22.0292C28.8641 22.0292 28.0211 22.9317 27.6352 23.7981C27.493 24.1049 27.5133 24.5381 27.5133 24.9803V32.7686H21.8156C21.8156 32.7686 21.8867 19.5565 21.8156 18.3562H27.5133V20.6214C27.8484 19.6287 29.6664 18.2208 32.5711 18.2208C36.1766 18.2208 39 20.2965 39 24.7547V32.7686Z" fill="#EC883B"/>
</svg>
