<svg width="52" height="47" viewBox="0 0 52 47" fill="none" xmlns="http://www.w3.org/2000/svg">
<path d="M51.5981 34.8403V13.3398L37.8281 24.0905L51.5981 34.8403Z" fill="#EC883B"/>
<path d="M43.5819 0H8.01506C3.58881 0 0 3.21376 0 7.17764V7.38791L22.9651 25.3171C23.7831 25.9532 24.783 26.2669 25.7985 26.2678C26.8141 26.2669 27.816 25.9532 28.632 25.3171L51.5969 7.38791V7.17764C51.5969 3.21376 48.0082 0 43.5819 0Z" fill="#EC883B"/>
<path d="M31.9267 28.6996C30.1774 30.0673 27.9818 30.7559 25.8019 30.7543C23.6221 30.756 21.4285 30.0666 19.6772 28.6996L17.5854 27.0664L0.210938 40.6305C1.025 43.8224 4.20859 46.2064 8.0185 46.2064H43.5853C47.3972 46.2064 50.5789 43.8224 51.393 40.6305L34.0185 27.0664L31.9267 28.6996Z" fill="#EC883B"/>
<path d="M0 13.3398V34.8403L13.7701 24.0896L0 13.3398Z" fill="#EC883B"/>
</svg>
